<svg width="0" height="0" class="hidden">
  <symbol version="1.1" xmlns="http://www.w3.org/2000/svg" viewBox="0 0 768 768" id="social-skype">
    <title></title>
    <g id="icomoon-ignore"></g>
    <path d="M661.376 425.984c1.888-13.664 2.848-27.072 2.848-40.032 0-77.984-27.072-145.408-80.416-200.416-53.92-55.52-120.16-83.68-196.864-83.68-8.928 0-17.472 0.416-25.632 1.216-24.192-11.2-50.176-16.832-77.632-16.832-51.488 0-97.696 19.52-133.568 56.48-35.36 36.32-54.112 82.72-54.112 134.144 0 26.624 4.992 51.808 14.912 75.136-1.504 11.424-2.24 22.816-2.24 33.984 0 78.016 27.296 145.504 81.024 200.544 54.176 55.424 120.576 83.52 197.248 83.52 8.128 0 17.504-0.64 28.672-1.92 22.080 9.056 45.088 13.632 68.672 13.632 50.816 0 96.8-19.648 133.024-56.864 35.744-36.576 54.688-83.2 54.688-134.752 0-21.664-3.552-43.168-10.624-64.16zM496 491.136c-9.088 13.664-23.328 24.992-42.848 34.080-19.488 7.776-41.92 11.68-67.2 11.68-30.528 0-56.192-5.536-76.928-16.608-14.944-8.384-26.656-19.136-35.072-32.096-9.088-14.304-13.696-27.584-13.696-39.936 0-7.776 2.944-14.624 8.768-20.448 5.888-5.888 13.312-8.768 22.4-8.768 6.496 0 12.992 2.304 19.488 6.816 5.184 5.184 9.056 11.712 11.648 19.488 0.672 0.64 4.896 8.096 12.672 22.4 3.264 4.512 9.088 9.056 17.504 13.6 7.84 3.904 18.176 5.856 31.2 5.856 17.536 0 32.16-3.872 43.84-11.648 10.368-7.168 15.552-16.224 15.552-27.296 0-9.088-2.944-15.936-8.768-20.448-5.856-5.888-13.28-10.368-22.368-13.664-2.592-0.672-6.016-1.504-10.208-2.4-4.256-0.992-9.12-2.272-14.624-3.936-5.504-1.632-10.24-2.752-14.112-3.392-22.048-4.512-40.864-10.368-56.512-17.536-13.632-5.184-25.952-14.24-36.992-27.232-9.056-12.352-13.632-26.976-13.632-43.84 0-16.896 4.864-31.808 14.624-44.8 9.728-12.992 23.68-22.752 41.856-29.216 18.208-7.168 39.008-10.688 62.368-10.688 17.536 0 34.112 2.24 49.664 6.816 14.976 5.184 26.976 11.36 36.064 18.528 8.416 7.776 15.264 15.552 20.448 23.328 4.544 10.368 6.848 18.848 6.848 25.312 0 8.48-2.944 15.616-8.8 21.408-6.432 6.528-13.952 9.792-22.368 9.792-7.136 0-13.312-1.952-18.496-5.888-3.264-3.232-7.456-9.056-12.672-17.504-3.872-9.088-10.048-17.184-18.464-24.384-7.776-5.824-19.808-8.736-36.064-8.736-16.224 0-28.544 3.264-36.992 9.76-9.088 5.888-13.632 12.672-13.632 20.448 0 5.184 1.6 9.472 4.864 12.672 3.264 4.576 7.424 8.16 12.672 10.752 3.264 1.92 8.768 4.224 16.576 6.784 1.952 0.672 6.304 1.824 13.12 3.392 6.816 1.696 12.512 2.784 17.056 3.424 9.056 1.952 24.672 6.144 46.752 12.672 12.992 4.512 25.312 10.336 36.992 17.536 11.072 7.744 19.168 16.544 24.384 26.24 5.184 11.68 7.744 24.672 7.744 38.944-0.064 17.536-4.928 33.792-14.656 48.736z"></path>
  </symbol>
  <symbol version="1.1" xmlns="http://www.w3.org/2000/svg" viewBox="0 0 768 768" id="social-twitter">
    <title></title>
    <g id="icomoon-ignore"></g>
    <path d="M604.48 224.384c25.856-15.872 42.976-37.536 51.36-65.088-25.152 13.344-50.208 22.496-75.232 27.552-22.496-24.192-50.976-36.48-85.12-36.48-33.376 0-61.568 11.712-84.576 34.496-22.88 22.944-34.432 50.816-34.432 83.36 0 9.888 1.248 18.72 3.744 26.208-98.432-3.36-179.904-44.192-244.096-122.784-10.88 19.232-16.32 38.816-16.32 59.072 0 41.632 17.568 74.624 52.64 98.848-20-1.696-37.632-6.752-52.64-15.040 0 29.728 8.736 54.56 26.24 76.416 17.568 21.632 40.128 35.424 67.68 41.312-9.984 2.56-20.512 3.776-31.328 3.776-9.984 0-17.056-0.832-21.248-2.656 7.36 24.224 21.248 43.872 41.312 58.912 20 15.104 43.008 23.072 68.864 23.776-42.624 33.44-91.36 49.984-146.496 49.984-13.504 0-23.072-0.192-28.864-1.216 54.304 35.264 114.752 52.768 181.632 52.768 68.448 0 128.928-17.344 181.568-52.032 52.64-34.496 91.488-77.056 116.448-127.168 25.088-50.048 37.504-102.144 37.504-156.544v-14.976c24.256-18.24 43.872-38.784 58.88-61.472-21.76 9.376-44.256 15.744-67.52 18.976z"></path>
  </symbol>
  <symbol version="1.1" xmlns="http://www.w3.org/2000/svg" viewBox="0 0 768 768" id="social-vimeo">
    <title></title>
    <g id="icomoon-ignore"></g>
    <path d="M605.44 280.832c-10.528 61.728-38.752 120.256-84.768 175.36-45.952 55.2-86.72 94.624-122.208 118.24-22.368 10.592-41.376 10.88-57.152 1.088-15.776-9.92-28.256-24.032-37.408-42.4-5.28-10.496-18.080-50.208-38.464-119.296-20.352-68.96-32.544-106.080-36.448-111.328-2.656-5.216-9.216-5.888-19.712-1.952-10.56 3.904-17.76 7.232-21.696 9.888-3.936 2.592-7.232 5.28-9.856 7.84l-17.728-23.584 19.712-23.68c14.464-15.744 32.832-32.224 55.168-49.28 22.4-17.088 42.048-27.584 59.136-31.584 11.872-2.56 21.728-0.896 29.568 4.992 7.904 5.888 14.464 15.488 19.712 28.608 5.28 13.088 9.248 25.952 11.808 38.368 2.656 12.544 5.28 27.328 7.936 44.384 2.592 17.088 5.248 30.24 7.872 39.424 14.432 61.76 26.272 92.672 35.488 92.672 13.12 0 34.144-27.616 63.072-82.88 13.12-24.928 13.824-45.632 1.984-62.112-11.808-16.384-30.176-16.704-55.168-0.928 3.936-24.96 15.104-46.592 33.472-64.992 32.832-35.488 69.024-48.672 108.416-39.488 40.736 7.904 56.48 38.816 47.264 92.64z"></path>
  </symbol>
</svg>